<svg width="16" height="16" viewBox="0 0 16 16" fill="none" xmlns="http://www.w3.org/2000/svg">
<path d="M12.1268 11.832H5.02682C4.36683 11.832 3.73349 11.552 3.28682 11.0654C2.84016 10.5787 2.6135 9.92536 2.66683 9.26536L3.22016 2.62537C3.24016 2.4187 3.16683 2.2187 3.02682 2.06537C2.88683 1.91204 2.69349 1.83203 2.48683 1.83203H1.3335C1.06016 1.83203 0.833496 1.60536 0.833496 1.33203C0.833496 1.0587 1.06016 0.832031 1.3335 0.832031H2.4935C2.98017 0.832031 3.44016 1.0387 3.76683 1.39203C3.94683 1.59203 4.08016 1.82537 4.15349 2.08537H12.4802C13.1535 2.08537 13.7735 2.35203 14.2268 2.83203C14.6735 3.3187 14.9002 3.95203 14.8468 4.62537L14.4868 9.62537C14.4135 10.8454 13.3468 11.832 12.1268 11.832ZM4.18683 3.07869L3.66683 9.34536C3.6335 9.73202 3.76016 10.0987 4.02016 10.3854C4.28016 10.672 4.64016 10.8254 5.02682 10.8254H12.1268C12.8202 10.8254 13.4468 10.2387 13.5002 9.54537L13.8602 4.54537C13.8868 4.15204 13.7602 3.7787 13.5002 3.50537C13.2402 3.22537 12.8802 3.07202 12.4868 3.07202H4.18683V3.07869Z" fill="white"/>
<path d="M10.8333 15.1667C10.1 15.1667 9.5 14.5667 9.5 13.8333C9.5 13.1 10.1 12.5 10.8333 12.5C11.5667 12.5 12.1667 13.1 12.1667 13.8333C12.1667 14.5667 11.5667 15.1667 10.8333 15.1667ZM10.8333 13.5C10.6467 13.5 10.5 13.6467 10.5 13.8333C10.5 14.02 10.6467 14.1667 10.8333 14.1667C11.02 14.1667 11.1667 14.02 11.1667 13.8333C11.1667 13.6467 11.02 13.5 10.8333 13.5Z" fill="white"/>
<path d="M5.49984 15.1667C4.7665 15.1667 4.1665 14.5667 4.1665 13.8333C4.1665 13.1 4.7665 12.5 5.49984 12.5C6.23317 12.5 6.83317 13.1 6.83317 13.8333C6.83317 14.5667 6.23317 15.1667 5.49984 15.1667ZM5.49984 13.5C5.31317 13.5 5.1665 13.6467 5.1665 13.8333C5.1665 14.02 5.31317 14.1667 5.49984 14.1667C5.6865 14.1667 5.83317 14.02 5.83317 13.8333C5.83317 13.6467 5.6865 13.5 5.49984 13.5Z" fill="white"/>
<path d="M14 5.83203H6C5.72667 5.83203 5.5 5.60536 5.5 5.33203C5.5 5.0587 5.72667 4.83203 6 4.83203H14C14.2733 4.83203 14.5 5.0587 14.5 5.33203C14.5 5.60536 14.2733 5.83203 14 5.83203Z" fill="white"/>
</svg>
