<svg width="16" height="16" viewBox="0 0 16 16" fill="none" xmlns="http://www.w3.org/2000/svg">
<path d="M14.6663 6.16797H1.33301C1.05967 6.16797 0.833008 5.9413 0.833008 5.66797C0.833008 5.39464 1.05967 5.16797 1.33301 5.16797H14.6663C14.9397 5.16797 15.1663 5.39464 15.1663 5.66797C15.1663 5.9413 14.9397 6.16797 14.6663 6.16797Z" fill="white"/>
<path d="M5.33333 11.5H4C3.72667 11.5 3.5 11.2733 3.5 11C3.5 10.7267 3.72667 10.5 4 10.5H5.33333C5.60667 10.5 5.83333 10.7267 5.83333 11C5.83333 11.2733 5.60667 11.5 5.33333 11.5Z" fill="white"/>
<path d="M9.66667 11.5H7C6.72667 11.5 6.5 11.2733 6.5 11C6.5 10.7267 6.72667 10.5 7 10.5H9.66667C9.94 10.5 10.1667 10.7267 10.1667 11C10.1667 11.2733 9.94 11.5 9.66667 11.5Z" fill="white"/>
<path d="M11.7063 14.1654H4.29301C1.63967 14.1654 0.833008 13.3654 0.833008 10.7387V5.2587C0.833008 2.63203 1.63967 1.83203 4.29301 1.83203H11.6997C14.353 1.83203 15.1597 2.63203 15.1597 5.2587V10.732C15.1663 13.3654 14.3597 14.1654 11.7063 14.1654ZM4.29301 2.83203C2.19967 2.83203 1.83301 3.19203 1.83301 5.2587V10.732C1.83301 12.7987 2.19967 13.1587 4.29301 13.1587H11.6997C13.793 13.1587 14.1597 12.7987 14.1597 10.732V5.2587C14.1597 3.19203 13.793 2.83203 11.6997 2.83203H4.29301Z" fill="white"/>
</svg>
