<svg width="24" height="24" viewBox="0 0 24 24" fill="none" xmlns="http://www.w3.org/2000/svg">
<path d="M23.985 17.6599C23.9743 17.6301 23.9578 17.6027 23.9364 17.5793C23.915 17.5558 23.8892 17.5369 23.8605 17.5235C23.8318 17.5101 23.8007 17.5026 23.769 17.5013C23.7373 17.4999 23.7057 17.5049 23.676 17.5159L21.84 18.1849V2.03987C21.84 0.911943 20.928 0 19.8 0H4.2C3.072 0 2.16 0.911943 2.16 2.03987V18.1849L0.321 17.5159C0.294 17.5069 0.267 17.5009 0.24 17.5009C0.108 17.5009 0 17.6089 0 17.7409V19.5288C0 19.6278 0.0630001 19.7178 0.159 19.7538L11.67 23.9415C11.883 24.0195 12.114 24.0195 12.327 23.9415L23.841 19.7568C23.937 19.7208 24 19.6308 24 19.5318V17.7439C24 17.7139 23.994 17.6869 23.985 17.6599ZM12 21.7636L3.75 18.9708V1.5H20.25V18.75L12 21.7636Z" fill="#029247"/>
<path d="M8.50293 15.5405V7.82712C8.50288 7.66319 8.55728 7.50389 8.65759 7.37423C8.7579 7.24457 8.89843 7.1519 9.05712 7.11078C9.21581 7.06965 9.38366 7.0824 9.53432 7.14703C9.68498 7.21165 9.8099 7.32448 9.88948 7.4678L14.1618 15.1586C14.2414 15.3019 14.3663 15.4148 14.517 15.4794C14.6676 15.544 14.8355 15.5568 14.9942 15.5156C15.1529 15.4745 15.2934 15.3819 15.3937 15.2522C15.494 15.1225 15.5484 14.9632 15.5484 14.7993V7.08594" stroke="#029247" stroke-width="1.5" stroke-linecap="round" stroke-linejoin="round"/>
<path d="M7.09375 9.90625H16.9574" stroke="#029247" stroke-width="1.5" stroke-linecap="round" stroke-linejoin="round"/>
<path d="M7.09375 12.7227H16.9574" stroke="#029247" stroke-width="1.5" stroke-linecap="round" stroke-linejoin="round"/>
</svg>
