<svg width="24" height="25" viewBox="0 0 24 25" fill="none" xmlns="http://www.w3.org/2000/svg">
<path d="M22 10.25C21.59 10.25 21.25 9.91 21.25 9.5V7.5C21.25 4.92 19.58 3.25 17 3.25H15C14.59 3.25 14.25 2.91 14.25 2.5C14.25 2.09 14.59 1.75 15 1.75H17C20.44 1.75 22.75 4.06 22.75 7.5V9.5C22.75 9.91 22.41 10.25 22 10.25Z" fill="#029247"/>
<path d="M2 10.25C1.59 10.25 1.25 9.91 1.25 9.5V7.5C1.25 4.06 3.56 1.75 7 1.75H9C9.41 1.75 9.75 2.09 9.75 2.5C9.75 2.91 9.41 3.25 9 3.25H7C4.42 3.25 2.75 4.92 2.75 7.5V9.5C2.75 9.91 2.41 10.25 2 10.25Z" fill="#029247"/>
<path d="M17 23.25H15C14.59 23.25 14.25 22.91 14.25 22.5C14.25 22.09 14.59 21.75 15 21.75H17C19.58 21.75 21.25 20.08 21.25 17.5V15.5C21.25 15.09 21.59 14.75 22 14.75C22.41 14.75 22.75 15.09 22.75 15.5V17.5C22.75 20.94 20.44 23.25 17 23.25Z" fill="#029247"/>
<path d="M9 23.25H7C3.56 23.25 1.25 20.94 1.25 17.5V15.5C1.25 15.09 1.59 14.75 2 14.75C2.41 14.75 2.75 15.09 2.75 15.5V17.5C2.75 20.08 4.42 21.75 7 21.75H9C9.41 21.75 9.75 22.09 9.75 22.5C9.75 22.91 9.41 23.25 9 23.25Z" fill="#029247"/>
<path d="M11.9996 10.3711C11.5096 10.3711 11.0996 10.7711 11.0996 11.2711V13.7411C11.0996 14.2411 11.4996 14.6411 11.9996 14.6411C12.4996 14.6411 12.8996 14.2411 12.8996 13.7411V11.2711C12.8996 10.7711 12.4896 10.3711 11.9996 10.3711Z" fill="#029247"/>
<path d="M15.5298 7.89969C15.1898 7.55969 14.7998 7.26969 14.3798 7.02969C14.2398 6.95969 14.0898 6.88969 13.9398 6.81969C13.7898 6.75969 13.6398 6.69969 13.4798 6.65969C13.3198 6.60969 13.1598 6.56969 12.9998 6.52969C12.9898 6.52969 12.9698 6.52969 12.9598 6.51969C12.6498 6.45969 12.3298 6.42969 12.0098 6.42969H11.9898C11.6698 6.42969 11.3598 6.45969 11.0498 6.51969C11.0098 6.52969 10.9698 6.52969 10.9398 6.54969C10.7998 6.57969 10.6598 6.60969 10.5198 6.65969C10.3498 6.69969 10.1798 6.76969 10.0098 6.83969C9.87977 6.89969 9.74977 6.96969 9.62977 7.02969C9.47977 7.10969 9.34977 7.19969 9.20977 7.28969C8.94977 7.46969 8.69977 7.66969 8.46977 7.89969C8.35977 8.00969 8.24977 8.12969 8.14977 8.24969C8.04976 8.37969 7.94977 8.49969 7.85977 8.63969C7.76977 8.76969 7.68977 8.90969 7.60977 9.04969C7.22977 9.75969 7.00977 10.5697 7.00977 11.4297V13.5697C7.00977 15.2997 7.88977 16.8197 9.20977 17.7097C9.32977 17.7997 9.45977 17.8697 9.58977 17.9497L10.1398 18.2097C10.4198 18.3197 10.7098 18.4097 10.9998 18.4697C11.3198 18.5297 11.6498 18.5697 11.9898 18.5697C11.9998 18.5697 11.9998 18.5697 12.0098 18.5697C12.3498 18.5697 12.6798 18.5297 12.9998 18.4697C13.2998 18.4097 13.5898 18.3197 13.8698 18.2097C14.0598 18.1297 14.2398 18.0397 14.4098 17.9497C15.9498 17.0997 16.9898 15.4497 16.9898 13.5697V11.4297C16.9898 10.0497 16.4298 8.79969 15.5298 7.89969ZM14.3998 13.7397C14.3998 15.0597 13.3198 16.1397 11.9998 16.1397C10.6798 16.1397 9.59977 15.0597 9.59977 13.7397V11.2697C9.59977 9.94969 10.6798 8.86969 11.9998 8.86969C13.3198 8.86969 14.3998 9.94969 14.3998 11.2697V13.7397Z" fill="#029247"/>
</svg>
