<svg width="16" height="16" viewBox="0 0 16 16" fill="none" xmlns="http://www.w3.org/2000/svg">
<path d="M10.793 1.33203H5.20634C2.77967 1.33203 1.33301 2.7787 1.33301 5.20536V10.7854C1.33301 13.2187 2.77967 14.6654 5.20634 14.6654H10.7863C13.213 14.6654 14.6597 13.2187 14.6597 10.792V5.20536C14.6663 2.7787 13.2197 1.33203 10.793 1.33203ZM11.253 7.68536C11.253 7.94536 11.0463 8.15203 10.7863 8.15203C10.5263 8.15203 10.3197 7.94536 10.3197 7.68536V7.56536L8.50634 9.3787C8.40634 9.4787 8.27301 9.52536 8.13301 9.51203C7.99301 9.4987 7.86634 9.42536 7.79301 9.30536L7.11301 8.29203L5.52634 9.8787C5.43301 9.97203 5.31967 10.012 5.19967 10.012C5.07967 10.012 4.95967 9.96536 4.87301 9.8787C4.69301 9.6987 4.69301 9.40536 4.87301 9.2187L6.85967 7.23203C6.95967 7.13203 7.09301 7.08536 7.23301 7.0987C7.37301 7.11203 7.49967 7.18536 7.57301 7.30536L8.25301 8.3187L9.65967 6.91203H9.53967C9.27968 6.91203 9.07301 6.70536 9.07301 6.44536C9.07301 6.18536 9.27968 5.9787 9.53967 5.9787H10.7797C10.8397 5.9787 10.8997 5.99203 10.9597 6.01203C11.073 6.0587 11.1663 6.15203 11.213 6.26536C11.2397 6.32536 11.2463 6.38537 11.2463 6.44536V7.68536H11.253Z" fill="#34C759"/>
</svg>
