<svg width="32" height="32" viewBox="0 0 32 32" fill="none" xmlns="http://www.w3.org/2000/svg">
<path d="M20.0003 30.3346H12.0003C4.76033 30.3346 1.66699 27.2413 1.66699 20.0013V12.0013C1.66699 4.7613 4.76033 1.66797 12.0003 1.66797H20.0003C27.2403 1.66797 30.3337 4.7613 30.3337 12.0013V20.0013C30.3337 27.2413 27.2403 30.3346 20.0003 30.3346ZM12.0003 3.66797C5.85366 3.66797 3.66699 5.85464 3.66699 12.0013V20.0013C3.66699 26.148 5.85366 28.3346 12.0003 28.3346H20.0003C26.147 28.3346 28.3337 26.148 28.3337 20.0013V12.0013C28.3337 5.85464 26.147 3.66797 20.0003 3.66797H12.0003Z" fill="#292D32"/>
<path d="M11.9997 14.3333C9.97301 14.3333 8.33301 12.6933 8.33301 10.6667C8.33301 8.64 9.97301 7 11.9997 7C14.0263 7 15.6663 8.64 15.6663 10.6667C15.6663 12.6933 14.0263 14.3333 11.9997 14.3333ZM11.9997 9C11.0797 9 10.333 9.74667 10.333 10.6667C10.333 11.5867 11.0797 12.3333 11.9997 12.3333C12.9197 12.3333 13.6663 11.5867 13.6663 10.6667C13.6663 9.74667 12.9197 9 11.9997 9Z" fill="#292D32"/>
<path d="M3.56035 26.2661C3.24035 26.2661 2.92035 26.1061 2.73368 25.8261C2.42701 25.3728 2.54701 24.7461 3.01368 24.4394L9.58701 20.0261C11.027 19.0528 13.0137 19.1728 14.3203 20.2794L14.7603 20.6661C15.427 21.2394 16.5603 21.2394 17.2137 20.6661L22.7603 15.9061C24.1737 14.6928 26.4003 14.6928 27.827 15.9061L30.0003 17.7728C30.4137 18.1328 30.467 18.7594 30.107 19.1861C29.747 19.5994 29.1203 19.6528 28.6937 19.2928L26.5203 17.4261C25.8537 16.8528 24.7203 16.8528 24.0537 17.4261L18.507 22.1861C17.0937 23.3994 14.867 23.3994 13.4403 22.1861L13.0003 21.7994C12.387 21.2794 11.3737 21.2261 10.6937 21.6928L4.12035 26.1061C3.94701 26.2128 3.74701 26.2661 3.56035 26.2661Z" fill="#292D32"/>
</svg>
