<svg width="16" height="16" viewBox="0 0 16 16" fill="none" xmlns="http://www.w3.org/2000/svg">
<path d="M10.0002 15.1654H6.00016C2.38016 15.1654 0.833496 13.6187 0.833496 9.9987V5.9987C0.833496 2.3787 2.38016 0.832031 6.00016 0.832031H10.0002C13.6202 0.832031 15.1668 2.3787 15.1668 5.9987V9.9987C15.1668 13.6187 13.6202 15.1654 10.0002 15.1654ZM6.00016 1.83203C2.92683 1.83203 1.8335 2.92536 1.8335 5.9987V9.9987C1.8335 13.072 2.92683 14.1654 6.00016 14.1654H10.0002C13.0735 14.1654 14.1668 13.072 14.1668 9.9987V5.9987C14.1668 2.92536 13.0735 1.83203 10.0002 1.83203H6.00016Z" fill="white"/>
<path d="M4.8869 10.16C4.78024 10.16 4.67357 10.1267 4.58024 10.0533C4.36024 9.88667 4.32024 9.57334 4.4869 9.35334L6.07357 7.29334C6.2669 7.04667 6.54024 6.88667 6.85357 6.84667C7.16024 6.80667 7.47357 6.89334 7.72024 7.08667L8.94024 8.04667C8.9869 8.08667 9.03357 8.08667 9.0669 8.08001C9.09357 8.08001 9.14024 8.06667 9.18024 8.01334L10.7202 6.02667C10.8869 5.80667 11.2069 5.76667 11.4202 5.94C11.6402 6.10667 11.6802 6.42001 11.5069 6.64001L9.9669 8.62667C9.77357 8.87334 9.50024 9.03334 9.1869 9.06667C8.87357 9.10667 8.5669 9.02 8.32024 8.82667L7.10024 7.86667C7.05357 7.82667 7.00024 7.82667 6.97357 7.83334C6.9469 7.83334 6.90024 7.84667 6.86024 7.90001L5.27357 9.96C5.1869 10.0933 5.04024 10.16 4.8869 10.16Z" fill="white"/>
</svg>
