<svg width="16" height="16" viewBox="0 0 16 16" fill="none" xmlns="http://www.w3.org/2000/svg">
<path d="M10.793 1.33203H5.20634C2.77967 1.33203 1.33301 2.7787 1.33301 5.20536V10.7854C1.33301 13.2187 2.77967 14.6654 5.20634 14.6654H10.7863C13.213 14.6654 14.6597 13.2187 14.6597 10.792V5.20536C14.6663 2.7787 13.2197 1.33203 10.793 1.33203ZM11.253 9.55203C11.253 9.61203 11.2397 9.67203 11.2197 9.73203C11.173 9.84537 11.0797 9.9387 10.9663 9.98536C10.9063 10.012 10.8463 10.0187 10.7863 10.0187H9.54634C9.28634 10.0187 9.07967 9.81203 9.07967 9.55203C9.07967 9.29203 9.28634 9.08536 9.54634 9.08536H9.66634L8.25968 7.6787L7.57967 8.69203C7.49967 8.80536 7.37967 8.88537 7.23967 8.8987C7.09967 8.91203 6.96634 8.86536 6.86634 8.76536L4.87967 6.7787C4.69967 6.5987 4.69967 6.30537 4.87967 6.1187C5.05967 5.93203 5.35301 5.9387 5.53967 6.1187L7.12634 7.70537L7.80634 6.69203C7.88634 6.5787 8.00634 6.4987 8.14634 6.48536C8.29301 6.47203 8.41967 6.5187 8.51967 6.6187L10.333 8.43203V8.31203C10.333 8.05203 10.5397 7.84537 10.7997 7.84537C11.0597 7.84537 11.2663 8.05203 11.2663 8.31203V9.55203H11.253Z" fill="#FF3B30"/>
</svg>
