<svg width="24" height="24" viewBox="0 0 24 24" fill="none" xmlns="http://www.w3.org/2000/svg">
<path d="M10.4901 2.22469L5.50015 4.09468C4.35015 4.52468 3.41016 5.88467 3.41016 7.11467V14.5447C3.41016 15.7247 4.19017 17.2747 5.14017 17.9847L9.44016 21.1947C10.8502 22.2547 13.1701 22.2547 14.5801 21.1947L18.8802 17.9847C19.8302 17.2747 20.6101 15.7247 20.6101 14.5447V7.11467C20.6101 5.88467 19.6701 4.52468 18.5201 4.09468L13.5302 2.22469C12.6802 1.91469 11.3201 1.91469 10.4901 2.22469Z" stroke="#BD0A00" strokeWidth="1.5" strokeLinecap="round" strokeLinejoin="round"/>
<path d="M11.9997 10.9185C11.9597 10.9185 11.9097 10.9185 11.8697 10.9185C10.9297 10.8885 10.1797 10.1084 10.1797 9.15845C10.1797 8.18845 10.9697 7.39844 11.9397 7.39844C12.9097 7.39844 13.6997 8.18845 13.6997 9.15845C13.6897 10.1184 12.9397 10.8885 11.9997 10.9185Z" stroke="#BD0A00" strokeWidth="1.5" strokeLinecap="round" strokeLinejoin="round"/>
<path d="M10.0091 13.7194C9.04906 14.3594 9.04906 15.4094 10.0091 16.0494C11.0991 16.7794 12.8891 16.7794 13.9791 16.0494C14.9391 15.4094 14.9391 14.3594 13.9791 13.7194C12.8991 12.9894 11.1091 12.9894 10.0091 13.7194Z" stroke="#BD0A00" strokeWidth="1.5" strokeLinecap="round" strokeLinejoin="round"/>
</svg>
