<svg width="24" height="24" viewBox="0 0 24 24" fill="none" xmlns="http://www.w3.org/2000/svg">
<path d="M11.9998 22.6767C11.7598 22.6767 11.5199 22.647 11.2899 22.5778C6.09986 21.1628 2.33984 16.3638 2.33984 11.1592V6.81539C2.33984 5.70718 3.14985 4.50997 4.18985 4.0845L9.75986 1.82847C11.2099 1.24468 12.7998 1.24468 14.2398 1.82847L19.8098 4.0845C20.8498 4.50997 21.6599 5.70718 21.6599 6.81539V11.1592C21.6599 16.3539 17.8898 21.1529 12.7098 22.5778C12.4798 22.647 12.2398 22.6767 11.9998 22.6767ZM11.9998 2.88721C11.4298 2.88721 10.8698 2.99607 10.3298 3.21375L4.75986 5.46972C4.27986 5.66762 3.83984 6.31077 3.83984 6.8253V11.1691C3.83984 15.7108 7.13985 19.9062 11.6898 21.1529C11.8898 21.2123 12.1098 21.2123 12.3098 21.1529C16.8598 19.9062 20.1599 15.7108 20.1599 11.1691V6.8253C20.1599 6.31077 19.7198 5.66762 19.2398 5.46972L13.6699 3.21375C13.1299 2.99607 12.5698 2.88721 11.9998 2.88721Z" fill="#029247"/>
<path d="M13.4112 13.6861C13.2212 13.6861 13.0312 13.6169 12.8812 13.4684L10.0613 10.6781C9.77125 10.3912 9.77125 9.91622 10.0613 9.62927C10.3512 9.34233 10.8313 9.34233 11.1213 9.62927L13.9413 12.4196C14.2313 12.7065 14.2313 13.1815 13.9413 13.4684C13.7913 13.6169 13.6012 13.6861 13.4112 13.6861Z" fill="#029247"/>
<path d="M9.84266 12.944C9.84266 12.756 9.91265 12.568 10.0627 12.4196L12.8827 9.62927C13.1727 9.34233 13.6527 9.34233 13.9427 9.62927C14.2327 9.91622 14.2327 10.3912 13.9427 10.6781L11.1227 13.4684C10.8327 13.7554 10.3527 13.7554 10.0627 13.4684C9.91265 13.32 9.84266 13.132 9.84266 12.944Z" fill="#029247"/>
</svg>
