<svg width="24" height="24" viewBox="0 0 24 24" fill="none" xmlns="http://www.w3.org/2000/svg">
<path d="M18.0703 8.50867L9.51026 4.22867C3.76026 1.34867 1.40026 3.70867 4.28026 9.45867L5.15026 11.1987C5.40026 11.7087 5.40026 12.2987 5.15026 12.8087L4.28026 14.5387C1.40026 20.2887 3.75026 22.6487 9.51026 19.7687L18.0703 15.4887C21.9103 13.5687 21.9103 10.4287 18.0703 8.50867ZM14.8403 12.7487H9.44026C9.03026 12.7487 8.69026 12.4087 8.69026 11.9987C8.69026 11.5887 9.03026 11.2487 9.44026 11.2487H14.8403C15.2503 11.2487 15.5903 11.5887 15.5903 11.9987C15.5903 12.4087 15.2503 12.7487 14.8403 12.7487Z" fill="#029247"/>
</svg>
