<svg width="39" height="39" viewBox="0 0 39 39" fill="none" xmlns="http://www.w3.org/2000/svg">
<circle cx="19.5" cy="19.5" r="17.5" fill="#52D858" stroke="white" stroke-width="4"/>
<path d="M23.7554 13.6224L23.7012 16.4995C23.6935 16.8943 23.9489 17.4181 24.274 17.6535L26.1934 19.0807C27.424 19.9917 27.2227 21.1076 25.7522 21.5631L23.2523 22.3299C22.8344 22.4589 22.3933 22.9068 22.2849 23.3244L21.6889 25.5563C21.2168 27.3175 20.0404 27.4921 19.0652 25.9434L17.703 23.7799C17.4554 23.3851 16.8672 23.089 16.4028 23.1118L13.8178 23.2408C11.968 23.3319 11.4417 22.2843 12.6491 20.9026L14.1815 19.1566C14.4679 18.8302 14.5995 18.2228 14.4679 17.8129L13.6862 15.3608C13.2296 13.9184 14.05 13.1213 15.5128 13.592L17.796 14.3284C18.1829 14.4498 18.7634 14.3663 19.0885 14.131L21.4723 12.4457C22.757 11.5347 23.7863 12.0661 23.7554 13.6224Z" fill="white"/>
</svg>
