<svg width="16" height="16" viewBox="0 0 16 16" fill="none" xmlns="http://www.w3.org/2000/svg">
<path d="M7.99961 14.8319C7.45295 14.8319 6.90628 14.6585 6.45294 14.3185L2.97961 11.7185C2.33295 11.2319 1.94629 10.4585 1.94629 9.65188V1.17188H14.0529V9.65188C14.0529 10.4585 13.6663 11.2319 13.0196 11.7185L9.54629 14.3185C9.09295 14.6585 8.54628 14.8319 7.99961 14.8319ZM2.94629 2.16521V9.64521C2.94629 10.1385 3.18628 10.6119 3.57961 10.9119L7.05294 13.5119C7.61294 13.9319 8.39294 13.9319 8.95294 13.5119L12.4263 10.9119C12.8196 10.6119 13.0596 10.1385 13.0596 9.64521V2.16521H2.94629Z" fill="white"/>
<path d="M14.6663 2.16797H1.33301C1.05967 2.16797 0.833008 1.9413 0.833008 1.66797C0.833008 1.39464 1.05967 1.16797 1.33301 1.16797H14.6663C14.9397 1.16797 15.1663 1.39464 15.1663 1.66797C15.1663 1.9413 14.9397 2.16797 14.6663 2.16797Z" fill="white"/>
<path d="M10.6663 5.83203H5.33301C5.05967 5.83203 4.83301 5.60536 4.83301 5.33203C4.83301 5.0587 5.05967 4.83203 5.33301 4.83203H10.6663C10.9397 4.83203 11.1663 5.0587 11.1663 5.33203C11.1663 5.60536 10.9397 5.83203 10.6663 5.83203Z" fill="white"/>
<path d="M10.6663 9.16797H5.33301C5.05967 9.16797 4.83301 8.9413 4.83301 8.66797C4.83301 8.39464 5.05967 8.16797 5.33301 8.16797H10.6663C10.9397 8.16797 11.1663 8.39464 11.1663 8.66797C11.1663 8.9413 10.9397 9.16797 10.6663 9.16797Z" fill="white"/>
</svg>
