<svg width="12" height="12" viewBox="0 0 12 12" fill="none" xmlns="http://www.w3.org/2000/svg">
<path d="M3.74973 7.62375C3.65473 7.62375 3.55973 7.58875 3.48473 7.51375C3.33973 7.36875 3.33973 7.12875 3.48473 6.98375L5.08473 5.38375C5.16473 5.30375 5.26973 5.26375 5.38473 5.27375C5.49473 5.28375 5.59473 5.34375 5.65973 5.43875L6.20473 6.25875L7.97973 4.48375C8.12473 4.33875 8.36473 4.33875 8.50973 4.48375C8.65473 4.62875 8.65473 4.86875 8.50973 5.01375L6.40973 7.11375C6.32973 7.19375 6.22473 7.23375 6.10973 7.22375C5.99973 7.21375 5.89973 7.15375 5.83473 7.05875L5.28973 6.23875L4.01473 7.51375C3.93973 7.58875 3.84473 7.62375 3.74973 7.62375Z" fill="#52D858"/>
<path d="M8.25 6.125C8.045 6.125 7.875 5.955 7.875 5.75V5.125H7.25C7.045 5.125 6.875 4.955 6.875 4.75C6.875 4.545 7.045 4.375 7.25 4.375H8.25C8.455 4.375 8.625 4.545 8.625 4.75V5.75C8.625 5.955 8.455 6.125 8.25 6.125Z" fill="#52D858"/>
<path d="M7.5 11.375H4.5C1.785 11.375 0.625 10.215 0.625 7.5V4.5C0.625 1.785 1.785 0.625 4.5 0.625H7.5C10.215 0.625 11.375 1.785 11.375 4.5V7.5C11.375 10.215 10.215 11.375 7.5 11.375ZM4.5 1.375C2.195 1.375 1.375 2.195 1.375 4.5V7.5C1.375 9.805 2.195 10.625 4.5 10.625H7.5C9.805 10.625 10.625 9.805 10.625 7.5V4.5C10.625 2.195 9.805 1.375 7.5 1.375H4.5Z" fill="#52D858"/>
</svg>
