<svg width="16" height="16" viewBox="0 0 16 16" fill="none" xmlns="http://www.w3.org/2000/svg">
<path d="M8 15.1654C7.53333 15.1654 7.06 14.9854 6.70667 14.632L5.56665 13.5054C5.28665 13.2254 4.90001 13.072 4.50667 13.072H4C2.62 13.072 1.5 11.9587 1.5 10.592V3.31203C1.5 1.94536 2.62 0.832031 4 0.832031H12C13.38 0.832031 14.5 1.94536 14.5 3.31203V10.5854C14.5 11.952 13.38 13.0654 12 13.0654H11.4933C11.1 13.0654 10.7134 13.2254 10.4333 13.4987L9.29333 14.6254C8.94 14.9854 8.46667 15.1654 8 15.1654ZM4 1.83203C3.17333 1.83203 2.5 2.4987 2.5 3.31203V10.5854C2.5 11.4054 3.17333 12.0654 4 12.0654H4.50667C5.16667 12.0654 5.80665 12.332 6.27332 12.792L7.41333 13.9187C7.74 14.2387 8.26668 14.2387 8.59334 13.9187L9.73332 12.792C10.2 12.332 10.84 12.0654 11.5 12.0654H12C12.8267 12.0654 13.5 11.3987 13.5 10.5854V3.31203C13.5 2.49203 12.8267 1.83203 12 1.83203H4Z" fill="white"/>
<path d="M8.04639 6.46719C8.03305 6.46719 8.01305 6.46719 7.99972 6.46719C7.97972 6.46719 7.95306 6.46719 7.93306 6.46719C6.95973 6.43385 6.19971 5.64719 6.19971 4.66719C6.19971 3.67385 7.00638 2.86719 7.99972 2.86719C8.99305 2.86719 9.79972 3.67385 9.79972 4.66719C9.79306 5.64719 9.03307 6.43385 8.05973 6.46719C8.05973 6.46719 8.05305 6.46719 8.04639 6.46719ZM7.99972 3.86719C7.55972 3.86719 7.19971 4.22719 7.19971 4.66719C7.19971 5.10052 7.53972 5.45385 7.96639 5.46719C7.96639 5.46052 8.00639 5.46052 8.05306 5.46719C8.47306 5.44052 8.79972 5.09385 8.79972 4.66719C8.79972 4.22719 8.43972 3.86719 7.99972 3.86719Z" fill="white"/>
<path d="M8 11.1321C7.24 11.1321 6.48001 10.9321 5.88668 10.5387C5.32668 10.1654 5 9.62542 5 9.05208C5 8.47875 5.32001 7.93208 5.88668 7.55875C7.07334 6.77208 8.92665 6.77208 10.1066 7.55875C10.6666 7.93208 10.9933 8.47875 10.9933 9.04542C10.9933 9.61875 10.6733 10.1587 10.1066 10.5387C9.51998 10.9387 8.76 11.1321 8 11.1321ZM6.43998 8.39208C6.15332 8.58542 6 8.81875 6 9.05208C6 9.28542 6.15998 9.51875 6.43998 9.71208C7.28665 10.2787 8.70668 10.2787 9.55334 9.71208C9.84001 9.51875 9.99999 9.28542 9.99333 9.05208C9.99333 8.81875 9.83334 8.58542 9.55334 8.39208C8.71334 7.82542 7.28665 7.82542 6.43998 8.39208Z" fill="white"/>
</svg>
