<svg width="16" height="16" viewBox="0 0 16 16" fill="none" xmlns="http://www.w3.org/2000/svg">
<path d="M3.46679 6.97195C3.34012 6.97195 3.20679 6.91862 3.11346 6.82528C2.97346 6.67862 2.92679 6.46528 3.00679 6.27862L4.24679 3.31862C4.27346 3.25862 4.28679 3.21862 4.30679 3.18528C5.29346 0.911949 6.55346 0.358616 8.78012 1.21195C8.90679 1.25862 9.00679 1.35862 9.06012 1.48528C9.11346 1.61195 9.11346 1.75195 9.06012 1.87862L7.10679 6.41195C7.02679 6.59862 6.84679 6.71195 6.64679 6.71195H4.74679C4.36679 6.71195 4.00679 6.78528 3.66012 6.93195C3.60012 6.95862 3.53346 6.97195 3.46679 6.97195ZM7.07346 1.83195C6.24679 1.83195 5.74012 2.37195 5.21346 3.59862C5.20679 3.61862 5.19346 3.63862 5.18679 3.65862L4.31346 5.73195C4.46012 5.71862 4.60012 5.71195 4.74679 5.71195H6.31346L7.92012 1.97862C7.60679 1.87862 7.32679 1.83195 7.07346 1.83195Z" fill="white"/>
<path d="M12.1933 6.84683C12.1467 6.84683 12.0933 6.84016 12.0467 6.82683C11.7933 6.75349 11.5267 6.71349 11.2467 6.71349H6.64666C6.47999 6.71349 6.31999 6.62683 6.22666 6.48682C6.13999 6.34683 6.11999 6.16683 6.18666 6.01349L8.11999 1.52683C8.21999 1.28683 8.51332 1.12016 8.75999 1.20683C8.83999 1.23349 8.91332 1.26683 8.99332 1.30016L10.5667 1.96016C11.4867 2.34016 12.1 2.74016 12.5 3.22016C12.58 3.31349 12.6467 3.41349 12.7133 3.52016C12.7867 3.63349 12.8533 3.76683 12.9 3.90683C12.92 3.95349 12.9533 4.04016 12.9733 4.13349C13.16 4.76683 13.0667 5.54016 12.6667 6.54016C12.58 6.72683 12.3933 6.84683 12.1933 6.84683ZM7.40666 5.71349H11.2533C11.4667 5.71349 11.6733 5.73349 11.88 5.76683C12.0667 5.18683 12.1067 4.74016 12 4.38016C11.9867 4.32016 11.9733 4.29349 11.9667 4.26683C11.9267 4.16016 11.9 4.10016 11.8667 4.04683C11.82 3.97349 11.7867 3.91349 11.7333 3.85349C11.4467 3.50683 10.94 3.18683 10.18 2.87349L8.86666 2.32683L7.40666 5.71349Z" fill="white"/>
<path d="M10.6 15.1682H5.4C5.21333 15.1682 5.04 15.1548 4.86667 15.1348C2.52667 14.9815 1.19333 13.6415 1.03333 11.2748C1.01333 11.1282 1 10.9482 1 10.7682V9.46818C1 7.96818 1.89333 6.61484 3.27333 6.01484C3.74667 5.81484 4.24 5.71484 4.75333 5.71484H11.26C11.64 5.71484 12.0067 5.76818 12.3467 5.87484C13.9133 6.34818 15.0133 7.82818 15.0133 9.46818V10.7682C15.0133 10.9148 15.0067 11.0548 15 11.1882C14.8533 13.7948 13.3333 15.1682 10.6 15.1682ZM4.74667 6.71484C4.36667 6.71484 4.00667 6.78818 3.66 6.93484C2.64667 7.37484 1.99333 8.36818 1.99333 9.46818V10.7682C1.99333 10.9082 2.00667 11.0482 2.02 11.1815C2.14667 13.0815 3.08 14.0148 4.95333 14.1415C5.12 14.1615 5.25333 14.1748 5.39333 14.1748H10.5933C12.7933 14.1748 13.8733 13.2082 13.98 11.1415C13.9867 11.0215 13.9933 10.9015 13.9933 10.7682V9.46818C13.9933 8.26151 13.1867 7.18151 12.04 6.82818C11.7867 6.75484 11.52 6.71484 11.24 6.71484H4.74667Z" fill="white"/>
<path d="M1.49316 9.96653C1.21983 9.96653 0.993164 9.73987 0.993164 9.46653V7.5132C0.993164 5.4132 2.47983 3.59987 4.53316 3.19987C4.71316 3.16653 4.89983 3.2332 5.01983 3.3732C5.13316 3.5132 5.1665 3.7132 5.09316 3.87987L3.9265 6.66653C3.87316 6.78653 3.77983 6.87987 3.6665 6.9332C2.65316 7.3732 1.99983 8.36653 1.99983 9.46653C1.99316 9.73987 1.77316 9.96653 1.49316 9.96653ZM3.73316 4.54653C2.87983 5.02653 2.25983 5.86653 2.0665 6.84653C2.35983 6.54653 2.69983 6.2932 3.0865 6.10653L3.73316 4.54653Z" fill="white"/>
<path d="M14.5068 9.96652C14.2334 9.96652 14.0068 9.73985 14.0068 9.46652C14.0068 8.25985 13.2001 7.17985 12.0534 6.82652C11.9201 6.78652 11.8068 6.69319 11.7468 6.56652C11.6868 6.43985 11.6801 6.29319 11.7334 6.16652C12.0468 5.38652 12.1268 4.81985 12.0001 4.37985C11.9868 4.31985 11.9734 4.29319 11.9668 4.26652C11.8801 4.07319 11.9268 3.84652 12.0801 3.69985C12.2334 3.55319 12.4668 3.51985 12.6534 3.61985C14.1068 4.37985 15.0068 5.87319 15.0068 7.51319V9.46652C15.0068 9.73985 14.7801 9.96652 14.5068 9.96652ZM12.8334 6.05985C13.2534 6.25319 13.6268 6.52652 13.9401 6.85319C13.8134 6.19985 13.5001 5.60652 13.0401 5.13985C13.0068 5.41985 12.9401 5.72652 12.8334 6.05985Z" fill="white"/>
</svg>
